<svg xmlns="http://www.w3.org/2000/svg" version="1.1" xmlns:xlink="http://www.w3.org/1999/xlink" xmlns:svgjs="http://svgjs.com/svgjs" width="1440" height="560" preserveAspectRatio="none" viewBox="0 0 1440 560"><g mask="url(&quot;#SvgjsMask1034&quot;)" fill="none"><rect width="1440" height="560" x="0" y="0" fill="url(#SvgjsLinearGradient1035)"></rect><path d="M919.41 397.14 a42.01 42.01 0 1 0 84.02 0 a42.01 42.01 0 1 0 -84.02 0z" fill="rgba(87, 197, 182, 1)"></path><path d="M797.03 501.36a41.95 41.95 0 1 0 55.6 62.83z" stroke="rgba(87, 197, 182, 1)"></path><path d="M990.12 77.08L1027.26 77.08L1027.26 114.22L990.12 114.22z" stroke="rgba(87, 197, 182, 1)"></path><path d="M71.69 265.41L99.84 265.41L99.84 293.56L71.69 293.56z" stroke="rgba(254, 242, 244, 1)"></path><path d="M1226.79 187.58a37.2 37.2 0 1 0-69.28-27.14z" stroke="rgba(87, 197, 182, 1)"></path><path d="M195.17 461.68L244.1 461.68L244.1 510.61L195.17 510.61z" stroke="rgba(87, 197, 182, 1)"></path><path d="M133.08 462.44a26.57 26.57 0 1 0 36.88 38.26z" fill="rgba(255, 186, 186, 1)"></path><path d="M808.48 70.94L818.58 70.94L818.58 81.04L808.48 81.04z" stroke="rgba(209, 77, 114, 1)"></path><path d="M78.14 283.68L130.75 283.68L130.75 336.29L78.14 336.29z" fill="rgba(255, 186, 186, 1)"></path><path d="M447.85 493.4L488.5 493.4L488.5 543.92L447.85 543.92z" stroke="rgba(255, 186, 186, 1)"></path><path d="M662.2 119.27 a32.14 32.14 0 1 0 64.28 0 a32.14 32.14 0 1 0 -64.28 0z" fill="rgba(87, 197, 182, 1)"></path><path d="M171.75 134.14 a32.74 32.74 0 1 0 65.48 0 a32.74 32.74 0 1 0 -65.48 0z" fill="rgba(254, 242, 244, 1)"></path><path d="M1381.24 116.33L1434.96 116.33L1434.96 170.05L1381.24 170.05z" stroke="rgba(255, 186, 186, 1)"></path><path d="M866.92 431.47a53.48 53.48 0 1 0 46.39-96.38z" stroke="rgba(209, 77, 114, 1)"></path><path d="M1281.67 181.38a7.73 7.73 0 1 0-15.41-1.24z" stroke="rgba(87, 197, 182, 1)"></path><path d="M468.59 15.55a50.39 50.39 0 1 0-42.3 91.47z" stroke="rgba(87, 197, 182, 1)"></path><path d="M1356.72 319.75 a12.53 12.53 0 1 0 25.06 0 a12.53 12.53 0 1 0 -25.06 0z" fill="rgba(209, 77, 114, 1)"></path><path d="M586.31 26.69L611.37 26.69L611.37 51.75L586.31 51.75z" stroke="rgba(254, 242, 244, 1)"></path><path d="M883.7 417.72L932.69 417.72L932.69 466.71L883.7 466.71z" fill="rgba(254, 242, 244, 1)"></path><path d="M714.8 184.94L724.41 184.94L724.41 203.88L714.8 203.88z" fill="rgba(209, 77, 114, 1)"></path><path d="M727.87 553.02 a7.3 7.3 0 1 0 14.6 0 a7.3 7.3 0 1 0 -14.6 0z" stroke="rgba(254, 242, 244, 1)"></path><path d="M498.53 448.34L539.28 448.34L539.28 489.09L498.53 489.09z" fill="rgba(209, 77, 114, 1)"></path><path d="M686.75 540.45L742.16 540.45L742.16 595.86L686.75 595.86z" fill="rgba(87, 197, 182, 1)"></path><path d="M258.73 97.54 a15.53 15.53 0 1 0 31.06 0 a15.53 15.53 0 1 0 -31.06 0z" stroke="rgba(255, 186, 186, 1)"></path><path d="M1314.97 392.96L1323.81 392.96L1323.81 401.8L1314.97 401.8z" fill="rgba(254, 242, 244, 1)"></path><path d="M1171.05 47.35L1178.73 47.35L1178.73 81.49L1171.05 81.49z" stroke="rgba(87, 197, 182, 1)"></path><path d="M201.68 62.95L238.85 62.95L238.85 100.12L201.68 100.12z" fill="rgba(254, 242, 244, 1)"></path><path d="M686.55 59.89L728.42 59.89L728.42 101.76L686.55 101.76z" fill="rgba(254, 242, 244, 1)"></path><path d="M800.54 92.69L807.33 92.69L807.33 99.48L800.54 99.48z" stroke="rgba(87, 197, 182, 1)"></path><path d="M1369.32 43.26L1399.88 43.26L1399.88 73.82L1369.32 73.82z" stroke="rgba(209, 77, 114, 1)"></path><path d="M629.7 130.96L633.84 130.96L633.84 161L629.7 161z" fill="rgba(209, 77, 114, 1)"></path><path d="M1166.52 155.58L1179.49 155.58L1179.49 161.16L1166.52 161.16z" stroke="rgba(87, 197, 182, 1)"></path><path d="M526.91 455.42a16.65 16.65 0 1 0 0.2 33.3z" stroke="rgba(254, 242, 244, 1)"></path></g><defs><mask id="SvgjsMask1034"><rect width="1440" height="560" fill="#ffffff"></rect></mask><linearGradient x1="15.28%" y1="-39.29%" x2="84.72%" y2="139.29%" gradientUnits="userSpaceOnUse" id="SvgjsLinearGradient1035"><stop stop-color="#0e2a47" offset="0"></stop><stop stop-color="#00459e" offset="1"></stop></linearGradient></defs></svg>